<svg xmlns="http://www.w3.org/2000/svg" width="15" height="15" viewBox="0 0 15 15"><defs><style>.a{fill:#f22f2f;}</style></defs><g transform="translate(-2.817 -59.515)"><path class="a" d="M10.324,74.515h-.009a7.5,7.5,0,0,1,0-15h.005a7.5,7.5,0,0,1,.005,15Zm-.01-14.1a6.626,6.626,0,0,0-6.6,6.591,6.5,6.5,0,0,0,1.914,4.646,6.575,6.575,0,0,0,4.684,1.961h.008a6.623,6.623,0,0,0,6.591-6.591,6.615,6.615,0,0,0-6.6-6.607h0Z"/></g><g transform="translate(-2.817 -59.515)"><path class="a" d="M10.323,69.119a1.126,1.126,0,0,1,.456.095,1.241,1.241,0,0,1,.38.26,1.273,1.273,0,0,1,.262.382,1.117,1.117,0,0,1,.1.459,1.131,1.131,0,0,1-.1.462,1.255,1.255,0,0,1-.262.386,1.287,1.287,0,0,1-.38.263,1.1,1.1,0,0,1-.456.1,1.138,1.138,0,0,1-.462-.1,1.254,1.254,0,0,1-.649-.649,1.131,1.131,0,0,1-.1-.462,1.117,1.117,0,0,1,.1-.459,1.276,1.276,0,0,1,.263-.382,1.21,1.21,0,0,1,.386-.26A1.169,1.169,0,0,1,10.323,69.119Zm.753-.8H9.557L9.33,62.505H11.3Z"/></g></svg>