<svg xmlns="http://www.w3.org/2000/svg" width="11" height="16.346" viewBox="0 0 9.5 15.346"><defs><style>.a{fill:#666;fill-rule:evenodd;}</style></defs><path class="a" d="M48.1,200.264a1.827,1.827,0,0,1,1.827-1.827h5.847a1.826,1.826,0,0,1,1.826,1.827v11.693a1.825,1.825,0,0,1-1.826,1.826H49.924a1.826,1.826,0,0,1-1.827-1.826Zm1.827-1.1a1.1,1.1,0,0,0-1.1,1.1v11.693a1.1,1.1,0,0,0,1.1,1.1h5.847a1.1,1.1,0,0,0,1.1-1.1V200.264a1.1,1.1,0,0,0-1.1-1.1Z" transform="translate(-48.097 -198.437)"/><path class="a" d="M50.29,198.8a.365.365,0,0,1,.365-.366H55.04a.365.365,0,0,1,.365.366v.73a1.1,1.1,0,0,1-1.1,1.1H51.386a1.1,1.1,0,0,1-1.1-1.1Zm.731.365v.365a.365.365,0,0,0,.365.366h2.923a.365.365,0,0,0,.365-.366v-.365Z" transform="translate(-48.097 -198.437)"/></svg>