<svg xmlns="http://www.w3.org/2000/svg" width="11.25" height="15" viewBox="0 0 11.25 15"><defs><style>.a{fill:none;stroke-miterlimit:10;}.b,.c{stroke:none;}.c{fill:#666;}</style></defs><g class="a" transform="translate(-47.771 -282.694)"><path class="b" d="M57.615,288.319h-.469v-1.875a3.75,3.75,0,0,0-7.5,0v1.875h-.468a1.409,1.409,0,0,0-1.407,1.407v6.562a1.408,1.408,0,0,0,1.407,1.406h8.437a1.407,1.407,0,0,0,1.406-1.406v-6.562A1.408,1.408,0,0,0,57.615,288.319ZM50.9,286.444a2.5,2.5,0,0,1,5,0v1.875h-5Z"/><path class="c" d="M 49.17800140380859 289.3190002441406 C 48.95357894897461 289.3190002441406 48.77099990844727 289.5015869140625 48.77099990844727 289.7260131835938 L 48.77099990844727 296.2879943847656 C 48.77099990844727 296.5118713378906 48.95357894897461 296.6940002441406 49.17800140380859 296.6940002441406 L 57.6150016784668 296.6940002441406 C 57.83887100219727 296.6940002441406 58.02099990844727 296.5118713378906 58.02099990844727 296.2879943847656 L 58.02099990844727 289.7260131835938 C 58.02099990844727 289.5015869140625 57.83887100219727 289.3190002441406 57.6150016784668 289.3190002441406 L 49.17800140380859 289.3190002441406 M 53.39599990844727 282.6940002441406 C 55.46500015258789 282.6940002441406 57.14599990844727 284.3760070800781 57.14599990844727 286.4440002441406 L 57.14599990844727 288.3190002441406 L 57.6150016784668 288.3190002441406 C 58.38999938964844 288.3190002441406 59.02099990844727 288.9500122070312 59.02099990844727 289.7260131835938 L 59.02099990844727 296.2879943847656 C 59.02099990844727 297.0639953613281 58.38999938964844 297.6940002441406 57.6150016784668 297.6940002441406 L 49.17800140380859 297.6940002441406 C 48.40299987792969 297.6940002441406 47.77099990844727 297.0639953613281 47.77099990844727 296.2879943847656 L 47.77099990844727 289.7260131835938 C 47.77099990844727 288.9500122070312 48.40299987792969 288.3190002441406 49.17800140380859 288.3190002441406 L 49.64599990844727 288.3190002441406 L 49.64599990844727 286.4440002441406 C 49.64599990844727 284.3760070800781 51.32799911499023 282.6940002441406 53.39599990844727 282.6940002441406 Z M 55.89599990844727 288.3190002441406 L 55.89599990844727 286.4440002441406 C 55.89599990844727 285.0660095214844 54.77500152587891 283.9440002441406 53.39599990844727 283.9440002441406 C 52.01800155639648 283.9440002441406 50.89599990844727 285.0660095214844 50.89599990844727 286.4440002441406 L 50.89599990844727 288.3190002441406 L 55.89599990844727 288.3190002441406 Z"/></g></svg>