<svg xmlns="http://www.w3.org/2000/svg" width="14" height="12" viewBox="0 0 12 9"><defs><style>.a{fill:#666;}</style></defs><g transform="translate(-46.847 -242.061)"><path class="a" d="M57.722,242.061h-9.75a1.125,1.125,0,0,0-1.125,1.125v6.75a1.125,1.125,0,0,0,1.125,1.125h9.75a1.125,1.125,0,0,0,1.125-1.125v-6.75A1.125,1.125,0,0,0,57.722,242.061Zm-.27.75-4.6,3.289-4.6-3.289Zm.645,7.125a.374.374,0,0,1-.375.375h-9.75a.375.375,0,0,1-.375-.375v-6.664l5.033,3.593a.377.377,0,0,0,.435,0l5.032-3.593Z"/></g></svg>