<svg xmlns="http://www.w3.org/2000/svg" width="15" height="15" viewBox="0 0 15 15"><defs><style>.a{fill:#ff2b2b;}</style></defs><path class="a" d="M-120.461,158.025h0a7.469,7.469,0,0,1-5.334-2.228,7.367,7.367,0,0,1-2.147-5.286,7.537,7.537,0,0,1,7.481-7.486h0a7.5,7.5,0,0,1,5.334,2.222,7.393,7.393,0,0,1,2.184,5.278A7.537,7.537,0,0,1-120.461,158.025Zm0-14.1a6.637,6.637,0,0,0-6.615,6.6,6.5,6.5,0,0,0,1.919,4.643,6.591,6.591,0,0,0,4.7,1.957h0a6.637,6.637,0,0,0,6.616-6.6A6.63,6.63,0,0,0-120.461,143.925Z" transform="translate(127.943 -143.025)"/><g transform="translate(127.943 -143.025)"><rect class="a" width="1.5" height="8.7" transform="translate(-124.049 147.983) rotate(-45)"/><rect class="a" width="8.7" height="1.5" transform="translate(-124.049 153.067) rotate(-45)"/></g></svg>