<svg xmlns="http://www.w3.org/2000/svg" width="12.482" height="12.482" viewBox="0 0 12.482 12.482"><defs><style>.a{fill:#666;}</style></defs><g transform="translate(-267.051 -284.94)"><path class="a" d="M273.3,297.422h-.007a6.241,6.241,0,0,1,0-12.482h0a6.241,6.241,0,0,1,0,12.482Zm-.008-11.732a5.514,5.514,0,0,0-5.489,5.484,5.413,5.413,0,0,0,1.593,3.866,5.47,5.47,0,0,0,3.9,1.632h.006a5.51,5.51,0,0,0,5.485-5.485,5.5,5.5,0,0,0-5.489-5.5h0Z"/></g><g transform="translate(-267.051 -284.94)"><path class="a" d="M271,289.487a1.7,1.7,0,0,1,.287-.906,2.2,2.2,0,0,1,.838-.76,2.631,2.631,0,0,1,1.284-.3,2.749,2.749,0,0,1,1.206.252,1.953,1.953,0,0,1,.807.684,1.68,1.68,0,0,1,.284.942,1.445,1.445,0,0,1-.162.7,2.165,2.165,0,0,1-.386.521q-.224.219-.8.736a3.247,3.247,0,0,0-.257.257,1.017,1.017,0,0,0-.143.2.916.916,0,0,0-.073.184c-.018.061-.043.169-.078.322a.524.524,0,0,1-.56.49.575.575,0,0,1-.412-.16.631.631,0,0,1-.167-.476,1.664,1.664,0,0,1,.447-1.193,7.5,7.5,0,0,1,.546-.52c.2-.176.346-.308.435-.4a1.314,1.314,0,0,0,.226-.3.715.715,0,0,0,.092-.358.832.832,0,0,0-.28-.635,1.025,1.025,0,0,0-.723-.259,1,1,0,0,0-.762.261,2.086,2.086,0,0,0-.414.77c-.107.354-.309.532-.607.532a.6.6,0,0,1-.445-.186A.568.568,0,0,1,271,289.487Zm2.3,5.159a.737.737,0,0,1-.5-.186.654.654,0,0,1-.214-.52.67.67,0,0,1,.207-.5.7.7,0,0,1,.509-.2.692.692,0,0,1,.7.7.657.657,0,0,1-.212.518A.711.711,0,0,1,273.3,294.646Z"/></g></svg>