<svg xmlns="http://www.w3.org/2000/svg" viewBox="0 0 31.07 19.2"><defs><style>.cls-1{fill:#bdbebd;}.cls-2{fill:#a4a4a5;}.cls-3{fill:#cdcdcd;}</style></defs><g id="Capa_2" data-name="Capa 2"><g id="Capa_1-2" data-name="Capa 1"><rect class="cls-1" x="11.33" y="2.05" width="8.4" height="15.1"/><path class="cls-2" d="M11.87,9.6a9.6,9.6,0,0,1,3.66-7.55,9.6,9.6,0,1,0,0,15.1A9.6,9.6,0,0,1,11.87,9.6Z"/><path class="cls-3" d="M31.07,9.6a9.61,9.61,0,0,1-15.54,7.55,9.6,9.6,0,0,0,0-15.1A9.61,9.61,0,0,1,31.07,9.6Zm-.92,6v-.31h.12v-.06H30v.06h.12v.31Zm.62,0v-.37h-.1l-.11.25-.12-.25h-.09v.37h.07v-.28l.1.24h.07l.11-.24v.28Z"/></g></g></svg>