<svg xmlns="http://www.w3.org/2000/svg" width="18.006" height="13.466" viewBox="0 0 18.006 13.466"><defs><style>.a{fill:none;}.b{fill:#666;}</style></defs><path class="a" d="M262.209,290.117a3.541,3.541,0,0,1,5.27-3.1l.88-.9a6.727,6.727,0,0,0-2.59-.54c-3.61,0-6.73,3.43-7.65,4.55a16.248,16.248,0,0,0,3.25,2.99l1.29-1.3A3.481,3.481,0,0,1,262.209,290.117Z" transform="translate(-256.766 -283.461)"/><path class="a" d="M269.329,290.117a3.529,3.529,0,0,1-5.27,3.1l-.88.9a6.714,6.714,0,0,0,2.59.56c3.61,0,6.73-3.43,7.65-4.55a16.319,16.319,0,0,0-3.25-3.01l-1.29,1.3A3.553,3.553,0,0,1,269.329,290.117Z" transform="translate(-256.766 -283.461)"/><path class="a" d="M265.769,292.5a2.371,2.371,0,0,0,2.37-2.37v-.01a2.519,2.519,0,0,0-.15-.82l-3,3A2.471,2.471,0,0,0,265.769,292.5Z" transform="translate(-256.766 -283.461)"/><path class="a" d="M265.769,287.747a2.38,2.38,0,0,0-2.37,2.37,2.468,2.468,0,0,0,.15.82l3-3A2.266,2.266,0,0,0,265.769,287.747Z" transform="translate(-256.766 -283.461)"/><path class="b" d="M258.119,290.117c.92-1.12,4-4.55,7.65-4.55a6.734,6.734,0,0,1,2.59.55l.9-.9a8.19,8.19,0,0,0-3.49-.83c-4.89,0-8.73,5.17-8.89,5.39a.6.6,0,0,0,0,.7,17.56,17.56,0,0,0,3.63,3.5l.86-.86A16.243,16.243,0,0,1,258.119,290.117Z" transform="translate(-256.766 -283.461)"/><path class="b" d="M274.659,289.777a17.383,17.383,0,0,0-3.64-3.51l-.85.85a16.327,16.327,0,0,1,3.25,3c-.92,1.12-4,4.55-7.65,4.55a6.726,6.726,0,0,1-2.59-.55l-.9.9a7.994,7.994,0,0,0,3.49.84c4.89,0,8.72-5.16,8.89-5.38A.6.6,0,0,0,274.659,289.777Z" transform="translate(-256.766 -283.461)"/><path class="b" d="M268.139,290.117a2.371,2.371,0,0,1-2.36,2.38h-.01a2.464,2.464,0,0,1-.82-.15l-.89.88a3.54,3.54,0,0,0,4.82-4.81l-.89.89A2.519,2.519,0,0,1,268.139,290.117Z" transform="translate(-256.766 -283.461)"/><path class="b" d="M262.209,290.117a3.481,3.481,0,0,0,.45,1.7l.89-.88a2.468,2.468,0,0,1-.15-.82,2.38,2.38,0,0,1,2.37-2.37,2.261,2.261,0,0,1,.82.16l.89-.89a3.54,3.54,0,0,0-5.27,3.1Z" transform="translate(-256.766 -283.461)"/><path class="b" d="M259.4,296.927a.349.349,0,0,1-.26-.1.359.359,0,0,1,0-.509h0l12.75-12.75a.361.361,0,1,1,.51.51l-12.75,12.75A.354.354,0,0,1,259.4,296.927Z" transform="translate(-256.766 -283.461)"/></svg>