<svg xmlns="http://www.w3.org/2000/svg" width="18.005" height="11.48" viewBox="0 0 18.005 11.48"><defs><style>.a{fill:#666;}</style></defs><path class="a" d="M274.388,291.591c-.17-.22-4-5.39-8.89-5.39s-8.73,5.17-8.89,5.39a.6.6,0,0,0,0,.7c.16.22,4,5.39,8.89,5.39s8.72-5.17,8.89-5.39A.6.6,0,0,0,274.388,291.591Zm-8.89,4.9c-3.6,0-6.73-3.43-7.65-4.55.92-1.12,4-4.55,7.65-4.55s6.73,3.43,7.65,4.55C272.228,293.061,269.108,296.491,265.5,296.491Z" transform="translate(-256.495 -286.201)"/><path class="a" d="M265.5,288.381a3.56,3.56,0,1,0,3.56,3.56A3.56,3.56,0,0,0,265.5,288.381Zm0,5.93a2.37,2.37,0,1,1,2.37-2.37h0A2.371,2.371,0,0,1,265.5,294.311Z" transform="translate(-256.495 -286.201)"/></svg>