<svg xmlns="http://www.w3.org/2000/svg" viewBox="0 0 41.65 12.82"><defs><style>.cls-1{fill:#bebebe;}</style></defs><g id="Capa_2" data-name="Capa 2"><g id="Capa_1-2" data-name="Capa 1"><polygon class="cls-1" points="16.68 0.21 14.56 12.63 17.95 12.63 20.06 0.21 16.68 0.21"/><path class="cls-1" d="M11.72.23,8.41,8.7,8.05,7.42A13.23,13.23,0,0,0,3.36,2.27l3,10.36H10L15.31.22Z"/><path class="cls-1" d="M6.77,1.12a1.36,1.36,0,0,0-1.48-1H0L0,.35c4.08,1,6.79,3.38,7.91,6.25Z"/><path class="cls-1" d="M26.93,2.59a6.38,6.38,0,0,1,2.53.48l.31.14L30.22.52a8.77,8.77,0,0,0-3-.52c-3.34,0-5.7,1.68-5.72,4.1,0,1.78,1.68,2.78,3,3.37s1.77,1,1.76,1.55c0,.83-1.05,1.21-2,1.21A7.13,7.13,0,0,1,21,9.58l-.44-.2-.48,2.78a10.61,10.61,0,0,0,3.78.66c3.56,0,5.87-1.66,5.89-4.24,0-1.41-.89-2.49-2.84-3.38C25.7,4.63,25,4.24,25,3.66S25.6,2.59,26.93,2.59Z"/><path class="cls-1" d="M38.91.23H36.3a1.69,1.69,0,0,0-1.78,1l-5,11.38h3.55s.58-1.53.71-1.86H38.1c.1.44.41,1.86.41,1.86h3.14Zm-4.17,8c.27-.71,1.34-3.47,1.34-3.47s.28-.72.46-1.18l.22,1.07s.65,3,.79,3.58Z"/></g></g></svg>