<?xml version="1.0" encoding="UTF-8" standalone="no"?>
<!-- Created with Inkscape (http://www.inkscape.org/) -->
<svg xmlns:rdf="http://www.w3.org/1999/02/22-rdf-syntax-ns#" xmlns="http://www.w3.org/2000/svg" xml:space="preserve" height="226.99" viewBox="0 0 233.85764 226.98999" width="233.86" version="1.1" xmlns:cc="http://creativecommons.org/ns#" xmlns:dc="http://purl.org/dc/elements/1.1/"><metadata><rdf:RDF><cc:Work rdf:about=""><dc:format>image/svg+xml</dc:format><dc:type rdf:resource="http://purl.org/dc/dcmitype/StillImage"/><dc:title/></cc:Work></rdf:RDF></metadata><g fill-rule="evenodd" transform="matrix(1.25 0 0 -1.25 -3.5379 237.3)"><path d="m99.241 189.84c-1.1304 0.004-2.2573-0.002-3.3812-0.0156-32.379-0.42702-62.004-5.6478-84.413-25.048-3.7931-3.7349-6.3706-7.5771-8.0688-12.623-1.7965-5.7094 1.0159-7.5224 5.6599-7.5753 0 0 116.24 0.0804 175.24 0.0644 4.7934 0.224 5.8461 0.78358 5.5266 4.2797-0.54371 3.5467-1.5741 5.8572-3.0391 8.2375-14.735 23.847-52.484 32.566-87.528 32.681z" fill="#f28a21"/><path d="m95.859 8.2488c-32.378 0.0143-64.919 1.1262-84.5 18.303-3.9177 3.299-7.0252 8.519-8.1223 11.72-1.0715 3.7769 1.1573 3.2381 5.8013 3.277 0 0 116.24-0.05917 175.24-0.04739 4.599 0.33012 5.868-1.0384 5.6016-3.1872-0.28247-1.5854-1.3338-3.3304-3.011-6.1156-12.68-21.282-55.05-23.415-91.011-23.95z" fill="#f28a21"/><g fill="#ec242d"><path d="m17.327 102.72h10.088c3.9579 0.0624 5.6346 1.0415 7.3727 2.558 3.7972 3.4134 3.9341 8.5125 2.0879 11.735-1.1566 1.7142-2.4662 3.1873-4.1598 3.841 2.716 1.8035 3.606 3.5873 3.9196 5.193 0.2097 1.23 0.1679 3.017-0.368 4.589-1.2891 3.6998-4.9734 5.6061-9.4848 5.794h-9.4926c-2.6333 0.096-5.484-0.91873-5.5089-4.342v-25.103c-0.01299-4.2299 3.4615-4.218 5.5457-4.265zm4.1554 26.995 2.4618-0.031c1.6432-0.11821 2.2198-0.60803 2.9234-1.714 0.6355-1.389 0.457-2.683-0.4246-3.759-0.8465-0.898-1.686-1.003-2.4953-1.015l-2.4653 0.032zm0-12.737 2.9524 0.005c0.9812-0.078 1.8965-0.279 2.7734-1.35 1.1123-1.4732 0.91644-3.7067-0.3734-5.025-1.0094-0.956-1.9029-1.0256-2.9758-1.008l-2.3766 0.021v7.357"/><path d="m64.291 105.89c2.3332 2.043 2.8965 4.085 2.9348 6.179l0.0152 20.73c-0.07377 5.1343-10.055 4.903-9.9441 0.006l0.0367-19.325c-0.10933-3.9331-6.3113-3.6774-6.4879 0.017l-0.0195 19.223c0.01886 5.0483-10.045 5.1262-10.034 0.011l-0.0258-20.657c-0.06906-9.2776 14.774-11.821 22.007-7.257"/><path d="m97.062 104.22c1.7539 1.464 2.4766 3.109 1.4153 4.641l-6.5739 8.413c2.0762 0.77918 3.383 2.6691 4.1867 4.4516 1.5912 3.593 1.1658 7.8802-1.0183 10.574-1.8185 2.2622-4.1907 4.0033-7.5883 4.134h-12.502c-2.0812 0.0419-3.5974-1.7068-3.5454-3.856v-26.353c-0.0219-4.694 9.5208-5.0014 9.6864 0.072l0.0156 9.409 8.6879-11.557c2.2148-2.7451 5.4068-1.2178 7.2355 0.071zm-10.833 18.918c-0.8414-0.918-1.6711-1.119-2.4832-1.195l-2.6152-0.10799v7.842l2.6703-0.029c1.6004-0.1513 2.1621-0.64515 2.8746-1.671 0.9168-1.786 0.6586-3.456-0.4465-4.839"/><path d="m130.92 120.2c-0.14902 1.8198-1.0119 2.4901-1.8718 2.7468-0.43 0.14-1.068 0.198-1.712 0.198l-7.653 0.045c-1.061 0.032-2.166-0.08-3.263-1.38-1.2467-1.7699-1.2485-3.6182-0.291-5.305 0.84373-1.1246 1.6168-1.4366 2.823-1.5568 0.79919-0.0796 0.98749-0.047 1.606 0.005 0.296 0.012 0.43225-0.0104 0.5815-0.248 0.73579-2.6249-1.5651-3.5665-4.2811-3.613-2.9471-0.026-4.7649 1.1444-5.9616 2.6552-1.6935 2.1379-2.2577 4.785-1.6653 7.7748 0.87602 3.6776 2.0987 5.2633 5.1881 6.2116 2.0501 0.62927 4.4173 0.68698 6.8774-0.13657 0.779-0.278 1.991-0.746 3.191-1.242 1.411-0.474 2.78-0.373 4.307 1.129 1.198 1.336 1.73 2.994 0.939 4.589-0.18 0.329-0.426 0.648-0.817 0.955-3.7297 3.0936-7.8531 3.7457-11.989 3.74-3.7075-0.14896-6.7239-0.59371-9.9719-2.6931-4.0343-2.6076-6.8308-6.3667-7.5775-12.077-0.1836-1.421-0.2062-2.845-0.0945-4.186 0.32079-3.3751 1.6171-6.8363 3.4909-9.342 4.4464-5.7946 11.253-6.2115 16.617-5.924 7.3287 0.35034 11.617 5.0874 11.647 7.0791v9.1947c-0.014 0.55-0.0461 0.94532-0.1011 1.3673"/><path d="m139.17 102.72h13.299c4.5075 0.0248 3.9538 7.9952-0.001 7.926l-7.501 0.048 0.024 5.243 5.944-0.03c4.685 0.046 4.652 7.9497 0.008 7.871l-6.029-0.001v4.657l6.87-0.016c4.576-0.0615 4.7523 8.0353 0.038 8.012h-12.652c-2.1947-0.0464-4.2903-1.3555-4.33-3.959l0.014-25.544c0.0246-2.872 2.7249-4.2685 4.316-4.207"/><path d="m184.02 104.22c1.7539 1.464 2.4766 3.109 1.4153 4.641l-6.5739 8.413c2.0762 0.77918 3.383 2.6691 4.1867 4.4516 1.5912 3.593 1.1658 7.8802-1.0183 10.574-1.8185 2.2622-4.1907 4.0033-7.5883 4.134h-12.502c-2.0812 0.0419-3.5974-1.7068-3.5454-3.856v-26.353c-0.0219-4.694 9.5208-5.0014 9.6864 0.072l0.0156 9.409 8.6879-11.557c2.2148-2.7451 5.4068-1.2178 7.2355 0.071zm-10.833 18.918c-0.8414-0.918-1.6711-1.119-2.4832-1.195l-2.6152-0.10799v7.842l2.6703-0.029c1.6004-0.1513 2.1621-0.64515 2.8746-1.671 0.9168-1.786 0.6586-3.456-0.4465-4.839"/><path d="m184.13 73.197c-0.22711 2.7732-1.5421 3.7947-2.8526 4.1859-0.65532 0.21336-1.6276 0.30175-2.6091 0.30175l-11.663 0.0686c-1.617 0.0488-3.301-0.12192-4.9728-2.103-1.9-2.6972-1.9028-5.5138-0.44348-8.0845 1.2858-1.7139 2.464-2.1893 4.3023-2.3724 1.218-0.12131 1.505-0.0716 2.4476 0.008 0.45111 0.0183 0.65875-0.0159 0.88621-0.37794 1.1214-4.0002-2.3852-5.4351-6.5245-5.506-4.4914-0.0396-7.2617 1.7441-9.0856 4.0464-2.5809 3.258-3.4407 7.2921-2.5379 11.848 1.3351 5.6044 3.1984 8.0209 7.9067 9.4661 3.1244 0.95897 6.732 1.0469 10.481-0.20812 1.1872-0.42365 3.0343-1.1369 4.8631-1.8927 2.1504-0.72235 4.2368-0.56843 6.5639 1.7205 1.8258 2.036 2.6365 4.5627 1.431 6.9934-0.27433 0.50137-0.64923 0.98751-1.2451 1.4554-5.6841 4.7144-11.968 5.7082-18.271 5.6995-5.6502-0.227-10.247-0.90477-15.197-4.1041-6.1483-3.9739-10.41-9.7024-11.548-18.405-0.27981-2.1655-0.31425-4.3356-0.14402-6.3792 0.48889-5.1435 2.4646-10.418 5.3202-14.237 6.7764-8.8306 17.15-9.466 25.324-9.0278 11.169 0.5339 17.705 7.7529 17.75 10.788v14.012c-0.0213 0.83816-0.0702 1.4406-0.15407 2.0837"/><path d="m55.024 58.28-12.991 14.212 13.108 14.164c5.5163 7.0186-5.2024 14.612-11.422 8.4774l-16.99-18.364 0.0406 14.89c-0.1188 7.8969-15.009 7.2631-15.039-0.1989l0.036-39.088c0.20202-7.9523 15.251-6.7763 15.047 0.1165l-0.107 15.328 16.894-18.603c2.0003-2.034 4.0863-2.5055 6.1519-2.2872 0.9754 0.11491 2.0484 0.44261 3.0793 1.0266 0.5031 0.2844 0.9863 0.6242 1.4242 1.002 2.4852 2.2257 3.166 4.8855 2.1477 7.3179-0.2848 0.6575-0.7317 1.3457-1.3817 2.0067"/><path d="m75.193 95.401c-3.8037 3.2703-13.024 2.2979-13.34-3.7992v-39.092c0.21671-8.3516 15.38-7.1755 15.072 0v39.092c-0.0219 1.2648-0.3332 2.5347-1.732 3.7992"/><path d="m128.99 95.467c-3.6987 3.2321-13 2.7476-13.327-3.8648v-16.838l-16.283 19.46c-0.6815 0.86738-1.5409 1.4966-2.3859 2.0266-3.554 2.4703-11.896 0.96793-11.945-4.6492l0.1141-39.087c0.11426-7.646 14.853-7.6407 14.957 0.0614v17.949l16.403-20.709c4.803-6.053 14.223-2.1057 14.212 2.6933l-0.005 39.091c-0.017 1.2859-0.326 2.5777-1.74 3.8652"/></g></g></svg>
