<svg id="Capa_1" data-name="Capa 1" xmlns="http://www.w3.org/2000/svg" viewBox="0 0 66.73 26.05"><defs><style>.cls-1{fill:#ce6d1e;}.cls-2{fill:#e4b143;}</style></defs><path class="cls-1" d="M11.26,16.49H6.85V7.59a1.75,1.75,0,1,0-3.49,0V18.23A1.75,1.75,0,0,0,5.11,20h6.15a1.74,1.74,0,1,0,0-3.48Z"/><path class="cls-1" d="M41.93,6H33.21a1.74,1.74,0,0,0,0,3.48h2.62v8.87a1.74,1.74,0,1,0,3.48,0V9.47h2.62a1.74,1.74,0,1,0,0-3.48Z"/><path class="cls-1" d="M16.58,20.12a1.74,1.74,0,0,0,1.74-1.74V12.54a1.75,1.75,0,0,0-3.49,0v5.84A1.75,1.75,0,0,0,16.58,20.12Z"/><circle class="cls-2" cx="16.49" cy="7.67" r="1.74" transform="translate(6.27 22.72) rotate(-80.78)"/><path class="cls-1" d="M29.3,12.54C26.81,10.92,24,11.45,24,10c0-.72.88-1.13,2.09-.93s1.58.74,2.69.74a1.48,1.48,0,0,0,1.48-1.48c0-.38-.42-2.2-4.16-2.51-2.46-.19-5.47.95-5.47,4.31,0,5,7,3.76,7,5.72,0,.69-.59,1-1.77,1a6.11,6.11,0,0,1-3.31-1.27h0a1.5,1.5,0,0,0-.64-.14,1.47,1.47,0,0,0-1.47,1.47,2.86,2.86,0,0,0,0,.34c.34,1.7,3,2.85,5.33,2.85,4.33,0,5.29-3.22,5.29-4.37A3.65,3.65,0,0,0,29.3,12.54Z"/><path class="cls-1" d="M55.89,7.93a7.14,7.14,0,1,0,0,10.1h0A7.14,7.14,0,0,0,55.89,7.93Zm-2.46,7.63a3.65,3.65,0,1,1,0-5.16,3.65,3.65,0,0,1,0,5.16Z"/><path class="cls-1" d="M61.62,5.93a1.74,1.74,0,0,0-1.74,1.74v5.81a1.74,1.74,0,0,0,3.48,0V7.67A1.74,1.74,0,0,0,61.62,5.93Z"/><path class="cls-1" d="M63.36,18.46a1.74,1.74,0,1,1-1.74-1.74A1.74,1.74,0,0,1,63.36,18.46Z"/></svg>