<?xml version="1.0" standalone="yes"?>
<svg xmlns="http://www.w3.org/2000/svg" width="301" height="371">
<path style="fill:#fffefe; stroke:none;" d="M0 0L0 371L301 371L301 0L0 0z"/>
<path style="fill:#80bd02; stroke:none;" d="M188 2C182.82 24.3921 173.712 49.2482 193.015 67.9568C197.314 72.1239 207.338 79.6442 213.907 77.3565C221.94 74.5586 223.482 61.0241 222.907 54C221.544 37.3737 200.738 11.7426 188 2z"/>
<path style="fill:#add45b; stroke:none;" d="M189 2L190 3L189 2M187 4L188 5L187 4M186.333 6.66666L186.667 7.33334L186.333 6.66666M192 6L193 7L192 6M193 7L194 8L193 7M194 8L195 9L194 8M185.333 9.66666L185.667 10.3333L185.333 9.66666M195 9L196 10L195 9M197 12L198 13L197 12M184.333 13.6667L184.667 14.3333L184.333 13.6667M198 13L199 14L198 13M199 14L200 15L199 14M183.333 16.6667L183.667 17.3333L183.333 16.6667M201 17L202 18L201 17M202 18L203 19L202 18M203 19L204 20L203 19M182 20L182 23L183 23L182 20M205 22L206 23L205 22M206 23L207 24L206 23M181 26L181 30L182 30L181 26M208 26L209 27L208 26M210 29L211 30L210 29M211 30L212 31L211 30M212 32L213 33L212 32M213 33L214 34L213 33M180 34L180 41L181 41L180 34M214 35L215 36L214 35M215 36L216 37L215 36M284 36L284 37L292 37L284 36M275 37L275 38L279 38L275 37z"/>
<path style="fill:#80bd02; stroke:none;" d="M221 95C259.419 96.6498 291.257 77.903 299 38C264.22 29.7196 222.583 58.6834 221 95z"/>
<path style="fill:#add45b; stroke:none;" d="M297.667 37.3333L298.333 37.6667L297.667 37.3333M216 38L217 39L216 38M271.667 38.3333L272.333 38.6667L271.667 38.3333M267.667 39.3333L268.333 39.6667L267.667 39.3333M264.667 40.3333L265.333 40.6667L264.667 40.3333M298 40L298 43L299 43L298 40M218 41L219 42L218 41M262 41L263 42L262 41M260 42L261 43L260 42M219 43L220 44L219 43M257.667 43.3333L258.333 43.6667L257.667 43.3333M181 45L181 48L182 48L181 45M220 45L221 46L220 45M254 45L255 46L254 45M297.333 45.6667L297.667 46.3333L297.333 45.6667M252 46L253 47L252 46M221 47L222 48L221 47M250 47L251 48L250 47M249 48L250 49L249 48M296.333 48.6667L296.667 49.3333L296.333 48.6667M222.333 49.6667L222.667 50.3333L222.333 49.6667M182.333 50.6667L182.667 51.3333L182.333 50.6667M246 50L247 51L246 50M245 51L246 52L245 51M295 51L296 52L295 51M223 52L223 63L224 63L223 52M183 53L184 54L183 53M241 54L242 55L241 54M294 54L295 55L294 54M240 55L241 56L240 55M184 56L185 57L184 56M239 56L240 57L239 56M293 56L294 57L293 56M238 57L239 58L238 57M185 58L186 59L185 58M237 58L238 59L237 58M292 58L293 59L292 58M291 60L292 61L291 60M187 61L188 62L187 61M234 62L235 63L234 62M290 62L291 63L290 62M233 63L234 64L233 63M189 64L190 65L189 64M222.333 64.6667L222.667 65.3333L222.333 64.6667M232 64L233 65L232 64M190 65L191 66L190 65M288 65L289 66L288 65M191 66L192 67L191 66M231 66L232 67L231 66M192 67L193 68L192 67M221 67L222 68L221 67M230 67L231 68L230 67M193 68L194 69L193 68M286 68L287 69L286 68M194 69L195 70L194 69M220 69L221 70L220 69M229 69L230 70L229 69M285 69L286 70L285 69M195 70L196 71L195 70M219 71L220 72L219 71M198 72L199 73L198 72M227 72L228 73L227 72M200 73L201 74L200 73M218 73L219 74L218 73M282 73L283 74L282 73M201 74L202 75L201 74M217 74L218 75L217 74M226 74L227 75L226 74M281 74L282 75L281 74M203.667 75.3333L204.333 75.6667L203.667 75.3333M280 75L281 76L280 75M206 76L207 77L206 76M225.333 76.6667L225.667 77.3333L225.333 76.6667M279 76L280 77L279 76M208.667 77.3333L209.333 77.6667L208.667 77.3333M278 77L279 78L278 77M211 78L211 79L214 79L211 78M277 78L278 79L277 78M224 79L225 80L224 79M223.333 81.6667L223.667 82.3333L223.333 81.6667M273 81L274 82L273 81M272 82L273 83L272 82z"/>
<path style="fill:#f88d9e; stroke:none;" d="M135 83L135 84L145 84L135 83M124 84L124 85L129 85L124 84z"/>
<path style="fill:#f55f76; stroke:none;" d="M226 104C234.329 115.826 245.12 125.642 252.947 138C271.087 166.642 278.407 202.782 270.105 236C249.118 319.968 142.087 369.886 74.0147 304.91C4.74902 238.795 53.8068 105.153 154 115.171C201.688 119.939 237.213 179.328 203.671 220C192.974 232.971 177.029 241.775 160 237.764C143.511 233.88 129.265 214.968 140.638 199C145.441 192.256 153.544 186.653 161.996 190.228C169.205 193.278 175.214 204.744 166.891 210.242C159.971 214.815 157.152 206.254 158 201C150.29 208.727 157.891 219.243 168 216.192C188.966 209.866 175.078 180.342 158 179.09C114.285 175.886 115.707 236.825 148 252.11C188.924 271.479 232.22 237.437 239.576 197C248.877 145.866 215.813 95.1829 164 86.0841C146.845 83.0717 128.999 83.0358 112 87.1304C94.5188 91.3412 77.6291 98.9446 63 109.428C-21.69 170.12 -10.8037 305.186 82 352.244C99.8845 361.313 119.899 367.08 140 367.961C190.374 370.166 238.757 346.96 267.254 305C309.658 242.562 294.895 142.395 226 104z"/>
<path style="fill:#f88d9e; stroke:none;" d="M152 84L152 85L157 85L152 84z"/>
<path style="fill:#add45b; stroke:none;" d="M222.333 84.6667L222.667 85.3333L222.333 84.6667M269 84L270 85L269 84z"/>
<path style="fill:#f88d9e; stroke:none;" d="M118 85L118 86L121 86L118 85M160 85L160 86L163 86L160 85z"/>
<path style="fill:#add45b; stroke:none;" d="M267 85L268 86L267 85z"/>
<path style="fill:#f88d9e; stroke:none;" d="M113.667 86.3333L114.333 86.6667L113.667 86.3333M166.667 86.3333L167.333 86.6667L166.667 86.3333z"/>
<path style="fill:#add45b; stroke:none;" d="M266 86L267 87L266 86z"/>
<path style="fill:#f88d9e; stroke:none;" d="M109.667 87.3333L110.333 87.6667L109.667 87.3333M170.667 87.3333L171.333 87.6667L170.667 87.3333z"/>
<path style="fill:#add45b; stroke:none;" d="M264 87L265 88L264 87z"/>
<path style="fill:#f88d9e; stroke:none;" d="M105.667 88.3333L106.333 88.6667L105.667 88.3333M174.667 88.3333L175.333 88.6667L174.667 88.3333z"/>
<path style="fill:#add45b; stroke:none;" d="M221.333 88.6667L221.667 89.3333L221.333 88.6667M262 88L263 89L262 88z"/>
<path style="fill:#f88d9e; stroke:none;" d="M102.667 89.3333L103.333 89.6667L102.667 89.3333M177.667 89.3333L178.333 89.6667L177.667 89.3333z"/>
<path style="fill:#add45b; stroke:none;" d="M260 89L261 90L260 89z"/>
<path style="fill:#f88d9e; stroke:none;" d="M99.6667 90.3333L100.333 90.6667L99.6667 90.3333M180 90L181 91L180 90z"/>
<path style="fill:#add45b; stroke:none;" d="M258 90L259 91L258 90z"/>
<path style="fill:#f88d9e; stroke:none;" d="M96.6667 91.3333L97.3333 91.6667L96.6667 91.3333M183 91L184 92L183 91z"/>
<path style="fill:#add45b; stroke:none;" d="M255.667 91.3333L256.333 91.6667L255.667 91.3333z"/>
<path style="fill:#f88d9e; stroke:none;" d="M94 92L95 93L94 92M185 92L186 93L185 92z"/>
<path style="fill:#add45b; stroke:none;" d="M220 92L220 95L221 95L220 92M252.667 92.3333L253.333 92.6667L252.667 92.3333z"/>
<path style="fill:#f88d9e; stroke:none;" d="M91 93L92 94L91 93M187 93L188 94L187 93z"/>
<path style="fill:#add45b; stroke:none;" d="M249.667 93.3333L250.333 93.6667L249.667 93.3333z"/>
<path style="fill:#f88d9e; stroke:none;" d="M89 94L90 95L89 94M189 94L190 95L189 94z"/>
<path style="fill:#add45b; stroke:none;" d="M244 94L244 95L247 95L244 94z"/>
<path style="fill:#f88d9e; stroke:none;" d="M87 95L88 96L87 95M191 95L192 96L191 95z"/>
<path style="fill:#add45b; stroke:none;" d="M222 95L222 96L227 96L222 95M236 95L236 96L241 96L236 95z"/>
<path style="fill:#f88d9e; stroke:none;" d="M84.6667 96.3333L85.3333 96.6667L84.6667 96.3333M193 96L194 97L193 96M82.6667 97.3333L83.3333 97.6667L82.6667 97.3333M195 97L196 98L195 97M80 98L81 99L80 98M197 98L198 99L197 98M79 99L80 100L79 99M198 99L199 100L198 99M77 100L78 101L77 100M200 100L201 101L200 100M75 101L76 102L75 101M201 101L202 102L201 101M73 102L74 103L73 102M203 102L204 103L203 102M224 102L226 105L224 102M72 103L73 104L72 103M204 103L205 104L204 103M70 104L71 105L70 104M227 104L228 105L227 104M226 105L227 106L226 105M228 105L229 106L228 105M67 106L68 107L67 106M208 106L209 107L208 106M209 107L210 108L209 107M231 107L232 108L231 107M64 108L65 109L64 108M210 108L211 109L210 108M229 108L230 109L229 108M211 109L212 110L211 109M230 109L231 110L230 109M234 109L235 110L234 109M61 110L62 111L61 110M212 110L213 111L212 110M231 110L232 111L231 110M235 110L236 111L235 110M60 111L61 112L60 111M213 111L214 112L213 111M232 111L233 112L232 111M214 112L215 113L214 112M233 112L234 113L233 112M57 113L58 114L57 113M215 113L216 114L215 113M234 113L235 114L234 113M239 113L240 114L239 113M56 114L57 115L56 114M216 114L217 115L216 114M240 114L241 115L240 114M55 115L56 116L55 115M129 115L129 116L134 116L129 115M152 115L152 116L157 116L152 115M217 115L218 116L217 115M241 115L242 116L241 115M123 116L123 117L126 117L123 116M159 116L159 117L162 117L159 116M218 116L219 117L218 116M119.667 117.333L120.333 117.667L119.667 117.333M164.667 117.333L165.333 117.667L164.667 117.333M219 117L220 118L219 117M115.667 118.333L116.333 118.667L115.667 118.333M168.667 118.333L169.333 118.667L168.667 118.333M238 118L239 119L238 118M50 119L51 120L50 119M112.667 119.333L113.333 119.667L112.667 119.333M171.667 119.333L172.333 119.667L171.667 119.333M239 119L240 120L239 119M49 120L50 121L49 120M110 120L111 121L110 120M174 120L175 121L174 120M221 120L222 121L221 120M240 120L241 121L240 120M247 120L248 121L247 120M48 121L49 122L48 121M107 121L108 122L107 121M176.667 121.333L177.333 121.667L176.667 121.333M222 121L223 122L222 121M248 121L249 122L248 121M47 122L48 123L47 122M105 122L106 123L105 122M179 122L180 123L179 122M249 122L250 123L249 122M46 123L47 124L46 123M102.667 123.333L103.333 123.667L102.667 123.333M181 123L182 124L181 123M242 123L243 124L242 123M250 123L251 124L250 123M45 124L46 125L45 124M100 124L101 125L100 124M183 124L184 125L183 124M224 124L225 125L224 124M243 124L244 125L243 124M251 124L252 125L251 124M44 125L45 126L44 125M98 125L99 126L98 125M184 125L185 126L184 125M43 126L44 127L43 126M186 126L187 127L186 126M42 127L43 128L42 127M95 127L96 128L95 127M226 127L227 128L226 127M41 128L42 129L41 128M93 128L94 129L93 128M189 128L190 129L189 128M246 128L247 129L246 128M40 129L41 130L40 129M91 129L92 130L91 129M190 129L191 130L190 129M247 129L248 130L247 129M90 130L91 131L90 130M228 130L229 131L228 130M256 130L257 131L256 130M88 131L89 132L88 131M248 131L249 132L248 131M257 131L258 132L257 131M87 132L88 133L87 132M194 132L195 133L194 132M229 132L230 133L229 132M249 132L250 133L249 132M258 132L259 133L258 132M37 133L38 134L37 133M195 133L196 134L195 133M259 133L260 134L259 133M36 134L37 135L36 134M84 134L85 135L84 134M196 134L197 135L196 134M230 134L231 135L230 134M250 134L251 135L250 134M35 135L36 136L35 135M83 135L84 136L83 135M197 135L198 136L197 135M251 135L252 136L251 135M198 136L199 137L198 136M231 136L232 137L231 136M261 136L262 137L261 136M199 137L200 138L199 137M252 137L253 138L252 137M262 137L263 138L262 137M33 138L34 139L33 138M79 138L80 139L79 138M232 138L233 139L232 138M253 138L254 139L253 138M32 139L33 140L32 139M78 139L79 140L78 139M31 140L32 141L31 140M77 140L78 141L77 140M233 140L234 141L233 140M254 140L255 141L254 140M264 140L265 141L264 140M76 141L77 142L76 141M202 141L203 142L202 141M265 141L266 142L265 141M30 142L31 143L30 142M75 142L76 143L75 142M203 142L204 143L203 142M29 143L30 144L29 143M74 143L75 144L74 143M234 143L235 144L234 143M256 143L257 144L256 143M73 144L74 145L73 144M204 144L205 145L204 144M267 144L268 145L267 144M72 145L73 146L72 145M205 145L206 146L205 145M235.333 145.667L235.667 146.333L235.333 145.667M257 145L258 146L257 145M27 146L28 147L27 146M71 146L72 147L71 146M268 146L269 147L268 146M70 147L71 148L70 147M206 147L207 148L206 147M258 147L259 148L258 147M269 147L270 148L269 147M69 148L70 149L69 148M236.333 148.667L236.667 149.333L236.333 148.667M25 149L26 150L25 149M207 149L208 150L207 149M259 149L260 150L259 149M270 149L271 150L270 149M208 150L209 151L208 150M24 151L25 152L24 151M237.333 151.667L237.667 152.333L237.333 151.667M260 151L261 152L260 151M66 152L67 153L66 152M209.333 152.667L209.667 153.333L209.333 152.667M272 152L273 153L272 152M65 153L66 154L65 153M261 153L262 154L261 153M22 154L23 155L22 154M64 154L65 155L64 154M273 154L274 155L273 154M210 155L211 156L210 155M238.333 155.667L238.667 156.333L238.333 155.667M262 155L263 156L262 155M21 156L22 157L21 156M274 156L275 157L274 156M62 157L63 158L62 157M211 157L212 158L211 157M263.333 157.667L263.667 158.333L263.333 157.667M20 158L21 159L20 158M275 158L276 159L275 158M239 159L239 162L240 162L239 159M19 160L20 161L19 160M60 160L61 161L60 160M212 160L213 161L212 160M264 160L265 161L264 160M276 160L277 161L276 160M59 161L60 162L59 161M18 162L19 163L18 162M265.333 162.667L265.667 163.333L265.333 162.667M277 162L278 163L277 162M58 163L59 164L58 163M213.333 163.667L213.667 164.333L213.333 163.667M17 164L18 165L17 164M278 164L279 165L278 164M240 165L240 169L241 169L240 165M266.333 165.667L266.667 166.333L266.333 165.667M16 166L17 167L16 166M56 166L57 167L56 166M279 166L280 167L279 166M214.333 167.667L214.667 168.333L214.333 167.667M15.3333 168.667L15.6667 169.333L15.3333 168.667M55 168L56 169L55 168M267.333 168.667L267.667 169.333L267.333 168.667M280 168L281 169L280 168M54 170L55 171L54 170M14 171L15 172L14 171M268.333 171.667L268.667 172.333L268.333 171.667M281 171L282 172L281 171M53 172L54 173L53 172M215 172L215 177L216 177L215 172M13.3333 173.667L13.6667 174.333L13.3333 173.667M282 173L283 174L282 173M52 174L53 175L52 174M241 174L241 186L242 186L241 174M269.333 175.667L269.667 176.333L269.333 175.667M12 176L13 177L12 176M51 176L52 177L51 176M283 176L284 177L283 176M50 178L51 179L50 178M152 178L152 179L158 179L152 178M11 179L12 180L11 179M147.667 179.333L148.333 179.667L147.667 179.333M161.667 179.333L162.333 179.667L161.667 179.333M270 179L270 182L271 182L270 179M284 179L285 180L284 179M49.3333 180.667L49.6667 181.333L49.3333 180.667M144 180L145 181L144 180M165 180L166 181L165 180M141.667 181.333L142.333 181.667L141.667 181.333M167 181L168 182L167 181M10.3333 182.667L10.6667 183.333L10.3333 182.667M140 182L141 183L140 182M285 182L286 183L285 182M48 183L49 184L48 183M138 183L139 184L138 183M170 183L171 184L170 183M171 184L172 185L171 184M9.33333 185.667L9.66667 186.333L9.33333 185.667M47.3333 185.667L47.6667 186.333L47.3333 185.667M135 185L136 186L135 185M172 185L173 186L172 185M271 185L271 188L272 188L271 185M286.333 185.667L286.667 186.333L286.333 185.667M134 186L135 187L134 186M173 186L174 187L173 186M133 187L134 188L133 187M215 187L215 192L216 192L215 187M46.3333 188.667L46.6667 189.333L46.3333 188.667M132 188L133 189L132 188M8.33333 189.667L8.66667 190.333L8.33333 189.667M131 189L132 190L131 189M152 189L152 190L156 190L152 189M157 189L157 190L161 190L157 189M175 189L176 190L175 189M287.333 189.667L287.667 190.333L287.333 189.667M130 190L131 191L130 190M149.667 190.333L150.333 190.667L149.667 190.333M162.667 190.333L163.333 190.667L162.667 190.333M45.3333 191.667L45.6667 192.333L45.3333 191.667M147 191L148 192L147 191M176 191L177 192L176 191M240 191L240 195L241 195L240 191M146 192L147 193L146 192M166 192L167 193L166 192M272 192L272 199L273 199L272 192M7.33333 193.667L7.66667 194.333L7.33333 193.667M128 193L129 194L128 193M167 193L168 194L167 193M177.333 193.667L177.667 194.333L177.333 193.667M288.333 193.667L288.667 194.333L288.333 193.667M44.3333 195.667L44.6667 196.333L44.3333 195.667M127 195L128 196L127 195M214 195L214 198L215 198L214 195M169 196L170 197L169 196M126 197L127 198L126 197M178 197L178 204L179 204L178 197M239 197L239 200L240 200L239 197M6 198L6 201L7 201L6 198M140 198L141 199L140 198M170.333 198.667L170.667 199.333L170.333 198.667M289 198L289 201L290 201L289 198M43.3333 199.667L43.6667 200.333L43.3333 199.667M125 199L126 200L125 199M213.333 199.667L213.667 200.333L213.333 199.667M139 200L140 201L139 200M124.333 202.667L124.667 203.333L124.333 202.667M138 202L139 203L138 202M238.333 202.667L238.667 203.333L238.333 202.667M155 203L156 204L155 203M157 203L158 204L157 203M212 203L213 204L212 203M5 204L5 208L6 208L5 204M42 204L42 207L43 207L42 204M137.333 204.667L137.667 205.333L137.333 204.667M154.333 204.667L154.667 205.333L154.333 204.667M290 204L290 208L291 208L290 204M170.333 205.667L170.667 206.333L170.333 205.667M237.333 205.667L237.667 206.333L237.333 205.667M123 206L123 212L124 212L123 206M177.333 206.667L177.667 207.333L177.333 206.667M211 206L212 207L211 206M157 207L158 208L157 207M169 208L170 209L169 208M210 208L211 209L210 208M136 209L136 214L137 214L136 209M158 209L159 210L158 209M168 209L169 210L168 209M176 209L177 210L176 209M236 209L237 210L236 209M41 210L41 215L42 215L41 210M154.333 210.667L154.667 211.333L154.333 210.667M159 210L160 211L159 210M167 210L168 211L167 210M209 210L210 211L209 210M161.667 211.333L162.333 211.667L161.667 211.333M164.667 211.333L165.333 211.667L164.667 211.333M235.333 211.667L235.667 212.333L235.333 211.667M155 212L156 213L155 212M174 212L175 213L174 212M208 212L209 213L208 212M291 212L291 237L292 237L291 212M4 213L4 236L5 236L4 213M123 213L123 220L124 220L123 213M173 213L174 214L173 213M172 214L173 215L172 214M207 214L208 215L207 214M234 214L235 215L234 214M158 215L159 216L158 215M170 215L171 216L170 215M137 216L137 219L138 219L137 216M160.667 216.333L161.333 216.667L160.667 216.333M167.667 216.333L168.333 216.667L167.667 216.333M206 216L207 217L206 216M233 216L234 217L233 216M205 217L206 218L205 217M232 218L233 219L232 218M204 219L205 220L204 219M272 219L272 224L273 224L272 219M138 220L139 221L138 220M203 220L204 221L203 220M231 220L232 221L231 220M202 221L203 222L202 221M124.333 222.667L124.667 223.333L124.333 222.667M230 222L231 223L230 222M140 224L141 225L140 224M228 225L229 226L228 225M125 226L126 227L125 226M141 226L142 227L141 226M142 227L143 228L142 227M227 227L228 228L227 227M271 227L271 230L272 230L271 227M195 228L196 229L195 228M226 228L227 229L226 228M126 229L127 230L126 229M194 229L195 230L194 229M127 231L128 232L127 231M146 231L147 232L146 231M191 231L192 232L191 231M224 231L225 232L224 231M147 232L148 233L147 232M223 232L224 233L223 232M270 232L270 235L271 235L270 232M128 233L129 234L128 233M149 233L150 234L149 233M188 233L189 234L188 233M222 233L223 234L222 233M41 234L41 239L42 239L41 234M150 234L151 235L150 234M186 234L187 235L186 234M129 235L130 236L129 235M152.667 235.333L153.333 235.667L152.667 235.333M183.667 235.333L184.333 235.667L183.667 235.333M130 236L131 237L130 236M155 236L156 237L155 236M181 236L182 237L181 236M158.667 237.333L159.333 237.667L158.667 237.333M176 237L176 238L179 238L176 237M269.333 237.667L269.667 238.333L269.333 237.667M131 238L132 239L131 238M163 238L163 239L174 239L163 238M132 239L133 240L132 239M268.333 240.667L268.667 241.333L268.333 240.667M5 241L5 245L6 245L5 241M214 241L215 242L214 241M290 241L290 245L291 245L290 241M42 242L42 246L43 246L42 242M213 242L214 243L213 242M212 243L213 244L212 243M267.333 244.667L267.667 245.333L267.333 244.667M209 245L210 246L209 245M139 246L140 247L139 246M140 247L141 248L140 247M206 247L207 248L206 247M266 247L267 248L266 247M6 248L6 251L7 251L6 248M43.3333 248.667L43.6667 249.333L43.3333 248.667M141 248L142 249L141 248M204 248L205 249L204 248M289 248L289 251L290 251L289 248M143 249L144 250L143 249M144 250L145 251L144 250M201 250L202 251L201 250M265 250L266 251L265 250M146 251L147 252L146 251M198.667 251.333L199.333 251.667L198.667 251.333M44.3333 252.667L44.6667 253.333L44.3333 252.667M148 252L149 253L148 252M196 252L197 253L196 252M264.333 252.667L264.667 253.333L264.333 252.667M150.667 253.333L151.333 253.667L150.667 253.333M193.667 253.333L194.333 253.667L193.667 253.333M7.33333 254.667L7.66667 255.333L7.33333 254.667M153 254L154 255L153 254M190.667 254.333L191.333 254.667L190.667 254.333M288.333 254.667L288.667 255.333L288.333 254.667M156.667 255.333L157.333 255.667L156.667 255.333M187.667 255.333L188.333 255.667L187.667 255.333M263 255L264 256L263 255M45.3333 256.667L45.6667 257.333L45.3333 256.667M160 256L160 257L163 257L160 256M182 256L182 257L185 257L182 256M166 257L166 258L178 258L166 257M262 257L263 258L262 257M8.33333 258.667L8.66667 259.333L8.33333 258.667M287.333 258.667L287.667 259.333L287.333 258.667M46.3333 259.667L46.6667 260.333L46.3333 259.667M261 260L262 261L261 260M9.33333 262.667L9.66667 263.333L9.33333 262.667M47.3333 262.667L47.6667 263.333L47.3333 262.667M260 262L261 263L260 262M286.333 262.667L286.667 263.333L286.333 262.667M259 264L260 265L259 264M48.3333 265.667L48.6667 266.333L48.3333 265.667M10 266L11 267L10 266M258 266L259 267L258 266M285 266L286 267L285 266M49 268L50 269L49 268M257 268L258 269L257 268M11 269L12 270L11 269M256 269L257 270L256 269M284.333 269.667L284.667 270.333L284.333 269.667M50 270L51 271L50 270M255 271L256 272L255 271M12 272L13 273L12 272M51 272L52 273L51 272M283 272L284 273L283 272M254 273L255 274L254 273M52 274L53 275L52 274M13 275L14 276L13 275M282 275L283 276L282 275M53 276L54 277L53 276M252 276L253 277L252 276M14.3333 277.667L14.6667 278.333L14.3333 277.667M281.333 277.667L281.667 278.333L281.333 277.667M54 278L55 279L54 278M251 278L252 279L251 278M250 279L251 280L250 279M15 280L16 281L15 280M55 280L56 281L55 280M280 280L281 281L280 280M16 282L17 283L16 282M56 282L57 283L56 282M248 282L249 283L248 282M279 282L280 283L279 282M17 284L18 285L17 284M57 284L58 285L57 284M278 284L279 285L278 284M58 285L59 286L58 285M246 285L247 286L246 285M18 286L19 287L18 286M245 286L246 287L245 286M277.333 286.667L277.667 287.333L277.333 286.667M59 287L60 288L59 287M19 288L20 289L19 288M60 288L61 289L60 288M276 289L277 290L276 289M20 290L21 291L20 290M61 290L62 291L61 290M242 290L243 291L242 290M275 290L276 291L275 290M62 291L63 292L62 291M241 291L242 292L241 291M21 292L22 293L21 292M240 292L241 293L240 292M274 292L275 293L274 292M22 294L23 295L22 294M64 294L65 295L64 294M273 294L274 295L273 294M65 295L66 296L65 295M23 296L24 297L23 296M272 296L273 297L272 296M24 298L25 299L24 298M271 298L272 299L271 298M25 299L26 300L25 299M270 299L271 300L270 299M69 300L70 301L69 300M26 301L27 302L26 301M70 301L71 302L70 301M269 301L270 302L269 301M71 302L72 303L71 302M72 303L73 304L72 303M28 304L29 305L28 304M73 304L74 305L73 304M228 304L229 305L228 304M267 304L268 305L267 304M74 305L75 306L74 305M227 305L228 306L227 305M75 306L76 307L75 306M226 306L227 307L226 306M30 307L31 308L30 307M76 307L77 308L76 307M225 307L226 308L225 307M265 307L266 308L265 307M31 308L32 309L31 308M264 308L265 309L264 308M222 309L223 310L222 309M221 310L222 311L221 310M33 311L34 312L33 311M81 311L82 312L81 311M262 311L263 312L262 311M34 312L35 313L34 312M82 312L83 313L82 312M218 312L219 313L218 312M261 312L262 313L261 312M217 313L218 314L217 313M85 314L86 315L85 314M215 314L216 315L215 314M36 315L37 316L36 315M86 315L87 316L86 315M214 315L215 316L214 315M259 315L260 316L259 315M37 316L38 317L37 316M212 316L213 317L212 316M258 316L259 317L258 316M38 317L39 318L38 317M89 317L90 318L89 317M211 317L212 318L211 317M257 317L258 318L257 317M91 318L92 319L91 318M209 318L210 319L209 318M92 319L93 320L92 319M207 319L208 320L207 319M94 320L95 321L94 320M205 320L206 321L205 320M96 321L97 322L96 321M203 321L204 322L203 321M98 322L99 323L98 322M201 322L202 323L201 322M43 323L44 324L43 323M100 323L101 324L100 323M199 323L200 324L199 323M252 323L253 324L252 323M44 324L45 325L44 324M102 324L103 325L102 324M197 324L198 325L197 324M251 324L252 325L251 324M45 325L46 326L45 325M104 325L105 326L104 325M195 325L196 326L195 325M250 325L251 326L250 325M46 326L47 327L46 326M106.667 326.333L107.333 326.667L106.667 326.333M192 326L193 327L192 326M249 326L250 327L249 326M47 327L48 328L47 327M109 327L110 328L109 327M189.667 327.333L190.333 327.667L189.667 327.333M248 327L249 328L248 327M48 328L49 329L48 328M112 328L113 329L112 328M186.667 328.333L187.333 328.667L186.667 328.333M247 328L248 329L247 328M115 329L116 330L115 329M183.667 329.333L184.333 329.667L183.667 329.333M246 329L247 330L246 329M118.667 330.333L119.333 330.667L118.667 330.333M179.667 330.333L180.333 330.667L179.667 330.333M122.667 331.333L123.333 331.667L122.667 331.333M175.667 331.333L176.333 331.667L175.667 331.333M127 332L127 333L130 333L127 332M169 332L169 333L172 333L169 332M54 333L55 334L54 333M133 333L133 334L137 334L133 333M161 333L161 334L166 334L161 333M241 333L242 334L241 333M55 334L56 335L55 334M144 334L144 335L154 335L144 334M240 334L241 335L240 334M56 335L57 336L56 335M239 335L240 336L239 335M57 336L58 337L57 336M238 336L239 337L238 336M60 338L61 339L60 338M235 338L236 339L235 338M61 339L62 340L61 339M234 339L235 340L234 339M64 341L65 342L64 341M231 341L232 342L231 341M65 342L66 343L65 342M230 342L231 343L230 342M67 343L68 344L67 343M228 343L229 344L228 343M68 344L69 345L68 344M227 344L228 345L227 344M70 345L71 346L70 345M225 345L226 346L225 345M224 346L225 347L224 346M73 347L74 348L73 347M222 347L223 348L222 347M75 348L76 349L75 348M220 348L221 349L220 348M76 349L77 350L76 349M219 349L220 350L219 349M78 350L79 351L78 350M217 350L218 351L217 350M80 351L81 352L80 351M215 351L216 352L215 351M82 352L83 353L82 352M213 352L214 353L213 352M84 353L85 354L84 353M211 353L212 354L211 353M86 354L87 355L86 354M209 354L210 355L209 354M88 355L89 356L88 355M207 355L208 356L207 355M90.6667 356.333L91.3333 356.667L90.6667 356.333M205 356L206 357L205 356M93 357L94 358L93 357M202 357L203 358L202 357M95 358L96 359L95 358M200 358L201 359L200 358M98 359L99 360L98 359M197 359L198 360L197 359M100.667 360.333L101.333 360.667L100.667 360.333M194.667 360.333L195.333 360.667L194.667 360.333M103.667 361.333L104.333 361.667L103.667 361.333M191.667 361.333L192.333 361.667L191.667 361.333M107 362L108 363L107 362M188 362L189 363L188 362M110.667 363.333L111.333 363.667L110.667 363.333M184.667 363.333L185.333 363.667L184.667 363.333M114.667 364.333L115.333 364.667L114.667 364.333M180.667 364.333L181.333 364.667L180.667 364.333M118 365L118 366L121 366L118 365M175 365L175 366L178 366L175 365M124 366L124 367L127 367L124 366M169 366L169 367L172 367L169 366M131 367L131 368L136 368L131 367M160 367L160 368L165 368L160 367M146 368L146 369L150 369L146 368z"/>
</svg>
