<svg id="Capa_1" data-name="Capa 1" xmlns="http://www.w3.org/2000/svg" viewBox="0 0 37.9 37.19"><defs><style>.cls-1{fill:#b5002d;}.cls-2{fill:#fff;}</style></defs><path class="cls-1" d="M2.49,25.52A.48.48,0,0,0,3.11,25,8.27,8.27,0,0,1,3,23.62a2.71,2.71,0,0,0-.41-1.53.85.85,0,0,0-.69-.34c-1.24,0-.83,2-.64,2.63a1.49,1.49,0,0,0,.44.78,1.84,1.84,0,0,0,.82.36M27.07,2.73c8.49,2.67,9.68,12.56,9.68,12.56a26.41,26.41,0,0,1-.28,7.4c-.34,1.4-.65,5.1-6.7,9.84a8.49,8.49,0,0,1-3.95,2.11c-.17,0-.35,0-.43-.1s.17-.47.24-.51c3.67-2.18,8.77-5.87,9-14.6,0,0,.5-8.2-4.57-12.07A19.84,19.84,0,0,0,24.23,4.2C24,4.13,21.4,3.56,21.33,4c-.09.61,1,.65,1.47.67a8.45,8.45,0,0,1,3.06,1c4.38,2.16,5.54,4.68,5.92,5.29,1.7,2.71,1.64,7.89,1.65,8.64A15.29,15.29,0,0,1,29.92,29c-1.88,2.59-6.12,5.9-13,6.49a15.94,15.94,0,0,1-8.67-1.83,13,13,0,0,1-4.5-4.53c-.33-.62-1-2.21-.22-2.36.45-.09,1.1,1.28,2.32,2.6a13,13,0,0,0,3.89,3.12c2.19,1.08,4.84,1.69,5.94,1.51a.2.2,0,0,0,0-.39,22.84,22.84,0,0,1-3.11-.67,17.62,17.62,0,0,1-6.74-4.95,11.3,11.3,0,0,1-1.91-4.41,36.81,36.81,0,0,1-.11-7A13.41,13.41,0,0,1,8.5,8.37c1.69-1.49,4.81-2.54,5.61-2.92a.14.14,0,0,0,0-.25,1.18,1.18,0,0,0-.49,0l-.37.08c-.35.07-10.36,2.33-10.47,14.5,0,1.09-1,.47-1.07-.21a12.82,12.82,0,0,1,.14-5.31A14.62,14.62,0,0,1,6.64,6.74,22.57,22.57,0,0,1,17.07,2.19a17.52,17.52,0,0,1,10,.54"/><path class="cls-1" d="M31.62,31.93h.65v.14H32v.68h-.15v-.68h-.25Zm.77,0h.23l.22.63h0l.22-.63h.23v.82h-.15v-.68h0l-.23.68h-.13l-.24-.68h0v.68h-.15Z"/><path class="cls-2" d="M27.3,12.23l-.44-.2c-.44-.2-1.52-.54-2.38-.81-.48-.15-1-.31-1.07-.35A10.56,10.56,0,0,1,23,9.36a5,5,0,0,0-.12-.49c-.08-.28-.17-.44-.44-.43h0c-.1,0-1.38.27-3.49.7l-3,.59c-.12,0-.19.07-1.11,1.46-.27.42-.62.94-.67,1l-.44.18c-.58.24-1.67.69-2.6,1.18a18.6,18.6,0,0,0-3.17,2,.32.32,0,0,0,0,.3.46.46,0,0,0,.42.17l.13,0c.19,0,6.47-1,10.06-1.37.9-.1,2-.19,3.38-.26,3.29-.18,6.61-.19,6.81-.16a.59.59,0,0,0,.52-.18.66.66,0,0,0,.17-.44c0-.32-.71-.68-2.16-1.32"/><path class="cls-2" d="M15.86,18.61c0-.32-.07-.47-.17-.54a.28.28,0,0,0-.18,0h0c-.16,0-.21.19-.25.29l-.11.16C14,20,13.84,20.57,13.78,21.05a1.27,1.27,0,0,0,.31,1,.4.4,0,0,0,.37.11.29.29,0,0,0,.23-.15.24.24,0,0,0,0-.22,5,5,0,0,1,.44-1,4.8,4.8,0,0,0,.72-2.21"/><path class="cls-2" d="M15.73,17.61h0c.3-.06.55-.4.69-.59.27-.37.6-.87.76-1.11,0-.06.1-.19.12-.24s0-.16,0-.2-.14-.07-.29,0a2.93,2.93,0,0,0-1.52,1,1.15,1.15,0,0,0-.26.81.4.4,0,0,0,.49.33"/><path class="cls-2" d="M22.29,20.74a.48.48,0,0,0-.14,0,4.15,4.15,0,0,1-1,.22,5,5,0,0,1-1.2-.07,8.06,8.06,0,0,0-2-.07l-.41.06c.24-.25.92-.94,1.3-1.35a4.34,4.34,0,0,0,.85-1.14.58.58,0,0,0,0-.53.45.45,0,0,0-.43-.13L17,18h-.25c-.25,0-.42.08-.46.26a.42.42,0,0,0,.19.43,1.48,1.48,0,0,0,.79.13l.39,0a5.87,5.87,0,0,0,.71-.13L16.55,20.4l-.12.11a3.69,3.69,0,0,0-.81.94c-.14.29-.12.53,0,.67a.35.35,0,0,0,.33.1,1.93,1.93,0,0,0,.37-.09,8.74,8.74,0,0,1,1.49-.29,13.87,13.87,0,0,1,2.09-.06,5.33,5.33,0,0,0,.81,0,3.13,3.13,0,0,0,1.53-.51h0c.1-.08.29-.22.21-.39a.19.19,0,0,0-.21-.1"/><path class="cls-2" d="M13.88,19.33a1.78,1.78,0,0,0-.49-2.1,2.53,2.53,0,0,0-2.09-.44,3.32,3.32,0,0,0-1.15.43.83.83,0,0,0-.42.57.45.45,0,0,0,.1.35s.12.09.34.05a2.11,2.11,0,0,0,.38-.11,12.19,12.19,0,0,0-1.82,3.75c-.49,1.55-.63,2.47-.42,2.79a.27.27,0,0,0,.2.13h.08c.43-.07.86-1.19,1.46-2.74q.13-.33.27-.69c1-2.54,1-3.16,1-3.33.3,0,1.38,0,1.51.86s-.62,1.31-1.34,1.67a4.49,4.49,0,0,1-.52.2,1.34,1.34,0,0,0-.33.14c-.1.06-.08.12-.07.15s.32.2.76.13h0a3.6,3.6,0,0,0,2.53-1.8"/><path class="cls-2" d="M22,23.62a.49.49,0,0,0-.09-.41.19.19,0,0,0-.15-.08h-.07c-.19,0-.31.23-.48.5a5.33,5.33,0,0,1-1.85,1.8,3,3,0,0,0,.14-1.11.73.73,0,0,0-.25-.55.71.71,0,0,0-.53-.1.86.86,0,0,0-.43.19.15.15,0,0,0,0,.13c0,.05.07.1.17.15s.15.16.11.29l0,.07c0,.12-.07.23-.11.35a2,2,0,0,0-.17,1.32.67.67,0,0,0,.83.39l.24-.06a3.51,3.51,0,0,0,1.47-1.28,1.36,1.36,0,0,0,.57,1,.48.48,0,0,0,.37.12.21.21,0,0,0,.15-.1.3.3,0,0,0,0-.3A6.28,6.28,0,0,1,22,24.17c0-.24.06-.44.07-.55"/><path class="cls-2" d="M27.3,22c-.1-.09-.29-.05-1,.11l-.74.16-.41.1-.33.08,0-.08a6.62,6.62,0,0,0,.3-.7.5.5,0,0,0-.07-.46.33.33,0,0,0-.27-.09.44.44,0,0,0-.26.17,7.59,7.59,0,0,0-.93,1.41,4.26,4.26,0,0,1-.88.06.64.64,0,0,0-.24,0h0a.41.41,0,0,0-.3.24.36.36,0,0,0,0,.25.55.55,0,0,0,.26.26,1.83,1.83,0,0,0,.75.11,6.14,6.14,0,0,0-.5,3.11.55.55,0,0,0,.13.35.23.23,0,0,0,.11,0c.1,0,.2-.16.26-.36s.73-2.15,1.22-3.38a25.48,25.48,0,0,0,2.43-1h0a2.59,2.59,0,0,0,.4-.21.16.16,0,0,0,0-.12.11.11,0,0,0,0-.08"/><path class="cls-2" d="M18.19,24.57a.14.14,0,0,0-.1-.08.35.35,0,0,0-.21,0l-.12.05-.34.12c.1-.47.2-.85.28-1.16.15-.64.23-1,.13-1.11a.19.19,0,0,0-.17-.08,0,0,0,0,0-.05,0c-.43.07-1.07,1.43-1.5,2.73l-.09,0q-.69.18-1.5.33c.12-.36.24-.73.39-1.15h0a4.76,4.76,0,0,0,.37-1.5c0-.24-.15-.27-.22-.26h0c-.47.08-1.36,1.7-2,3.19H13l-.16,0a5.82,5.82,0,0,0-.83.19c-.3.12-.47.28-.48.46s.12.31.35.41a1.89,1.89,0,0,0,.73.15c-.23.72-.55,1.95-.26,2.43a.41.41,0,0,0,.29.19.45.45,0,0,0,.23,0c.52-.09.74-.82.87-1.37s.24-1,.39-1.49a12.82,12.82,0,0,0,1.69-.6c-.16.7-.33,1.82.17,1.93a.62.62,0,0,0,.27,0,.8.8,0,0,0,.52-.45,4,4,0,0,0,.33-1.25c.06-.34.12-.67.18-1a5.53,5.53,0,0,0,.79-.55.28.28,0,0,0,.11-.25"/><path class="cls-2" d="M26.41,17.57a2.07,2.07,0,0,0-.26.7,4,4,0,0,1-1.16.5c-.07,0-.09,0-.09,0a0,0,0,0,1,0-.05,2.08,2.08,0,0,1,1.51-1.14m1.21,1a.37.37,0,0,1-.25-.12c-.13-.16-.07-.33.06-.68,0-.14.1-.3.15-.5a.5.5,0,0,0,0-.44.28.28,0,0,0-.22-.13.48.48,0,0,0-.27.09,2.75,2.75,0,0,0-.58,0,3.83,3.83,0,0,0-2.66,1.66,1.2,1.2,0,0,0-.16,1.12.3.3,0,0,1,0,.08h0a1.43,1.43,0,0,1-.55.15A4.78,4.78,0,0,1,22,19.68l-.49-.05c.28-.26,1.15-1.13,1.5-1.49.15-.16.4-.45.45-.52a.56.56,0,0,0,0-.66c-.09-.13-.33-.28-.87-.23l-.27,0L20.7,17a.57.57,0,0,1-.23,0l-.14,0h0a.35.35,0,0,0-.27.16.46.46,0,0,0,0,.43.69.69,0,0,0,.62.36,4.55,4.55,0,0,0,.48,0c.37,0,.79-.09,1-.13-.21.2-.48.41-.75.63a13.26,13.26,0,0,0-1.27,1.11c-.38.4-.56.81-.45,1a.26.26,0,0,0,.32.11,5,5,0,0,1,.62-.1c.3,0,.61,0,.91,0s.61,0,.91,0a3.24,3.24,0,0,0,.95-.21c.34-.15.55-.32.6-.49a.55.55,0,0,0,.18.06,1.23,1.23,0,0,0,.43,0,3.37,3.37,0,0,0,1.58-.73l.18-.13a1,1,0,0,0,.94.29h0a1.75,1.75,0,0,0,.91-.34.18.18,0,0,0,0-.15c0-.11-.12-.26-.62-.3"/></svg>