<svg id="Capa_1" data-name="Capa 1" xmlns="http://www.w3.org/2000/svg" xmlns:xlink="http://www.w3.org/1999/xlink" viewBox="0 0 86.79 32.03"><defs><style>.cls-1{fill:#363b86;}.cls-2{fill:url(#radial-gradient);}</style><radialGradient id="radial-gradient" cx="-868.18" cy="-28.63" r="9.84" gradientTransform="translate(1169.76 58.56) scale(1.34)" gradientUnits="userSpaceOnUse"><stop offset="0" stop-color="#e6b236"/><stop offset="0.85" stop-color="#cd6929"/></radialGradient></defs><path class="cls-1" d="M27.24,13h4.91c2.28,0,3.44,1.47,3.44,3.6s-1.49,3.51-3.77,3.51H30v2.57H27.24ZM30,15.32v2.53h1.59a1.16,1.16,0,0,0,1.22-1.31,1.14,1.14,0,0,0-1.23-1.22Z"/><path class="cls-1" d="M36.79,13h5.15a3,3,0,0,1,3.31,3.32,3.06,3.06,0,0,1-1.51,2.89l1.58,3.47H42.26L41,19.72H39.52v2.94H36.79Zm2.73,2.27v2.28h1.82a1,1,0,0,0,1.13-1.16,1,1,0,0,0-1.09-1.12Z"/><path class="cls-1" d="M46.81,13h2.8v9.68h-2.8Z"/><path class="cls-1" d="M53.94,17.32l.11,5.34H51.53V13h3l2.75,6.5L60,13h3.06v9.68H60.45l.13-5.57L58.2,22.66H56.26Z"/><path class="cls-1" d="M70.47,21.36H67.1l-.39,1.3H64L67.17,13H70.5l3.22,9.68H70.88Zm-2.76-2.07h2.16l-1.08-3.57Z"/><path class="cls-1" d="M78.75,19.7l-1.77,3H74l3.24-4.87L74.15,13h3.28l1.64,3,1.62-3h3l-3.14,4.75,3.29,4.93H80.55Z"/><path class="cls-2" d="M27.24,5.08a.6.6,0,0,1-.23.48,92.35,92.35,0,0,0-9.36,9.34l-.89-1.27h0A1.52,1.52,0,0,0,15.52,13H11.45L15,18c-1.81,2.17-3.72,4.66-5.66,7.33C6.54,24.17,3,22.69,3,19.66c-.09-6,18.15-13.5,23.51-15.16A.61.61,0,0,1,27.24,5.08ZM17.33,21.43a28.43,28.43,0,0,0-2.49,5.63,10.91,10.91,0,0,0,5.22.32.82.82,0,0,0,.51-1.29Z"/></svg>